<svg height="100" width="64" xmlns="http://www.w3.org/2000/svg" xmlns:xlink="http://www.w3.org/1999/xlink">
  <circle cx="10" cy="20" r="9" stroke="green" stroke-width="2" fill="none"></circle>
  <circle cx="10" cy="20" r="6" stroke="green" stroke-width="2" fill="none"></circle>
  <circle cx="10" cy="20" r="3" stroke="green" stroke-width="2" fill="none"></circle>
  <circle cx="32" cy="20" r="9" stroke="green" stroke-width="2" fill="none"></circle>
  <circle cx="32" cy="20" r="6" stroke="green" stroke-width="2" fill="none"></circle>
  <circle cx="32" cy="20" r="3" stroke="green" stroke-width="2" fill="none"></circle>
  <circle cx="54" cy="20" r="9" stroke="green" stroke-width="2" fill="none"></circle>
  <circle cx="54" cy="20" r="6" stroke="green" stroke-width="2" fill="none"></circle>
  <circle cx="54" cy="20" r="3" stroke="green" stroke-width="2" fill="none"></circle>
  
  <circle cx="10" cy="50" r="9" stroke="maroon" stroke-width="2" fill="none"></circle>
  <circle cx="10" cy="50" r="6" stroke="maroon" stroke-width="2" fill="none"></circle>
  <circle cx="10" cy="50" r="3" stroke="maroon" stroke-width="2" fill="none"></circle>
  <circle cx="32" cy="50" r="9" stroke="maroon" stroke-width="2" fill="none"></circle>
  <circle cx="32" cy="50" r="6" stroke="maroon" stroke-width="2" fill="none"></circle>
  <circle cx="32" cy="50" r="3" stroke="maroon" stroke-width="2" fill="none"></circle>
  <circle cx="54" cy="50" r="9" stroke="maroon" stroke-width="2" fill="none"></circle>
  <circle cx="54" cy="50" r="6" stroke="maroon" stroke-width="2" fill="none"></circle>
  <circle cx="54" cy="50" r="3" stroke="maroon" stroke-width="2" fill="none"></circle>
  
  <circle cx="10" cy="80" r="9" stroke="green" stroke-width="2" fill="none"></circle>
  <circle cx="10" cy="80" r="6" stroke="green" stroke-width="2" fill="none"></circle>
  <circle cx="10" cy="80" r="3" stroke="green" stroke-width="2" fill="none"></circle>
  <circle cx="32" cy="80" r="9" stroke="green" stroke-width="2" fill="none"></circle>
  <circle cx="32" cy="80" r="6" stroke="green" stroke-width="2" fill="none"></circle>
  <circle cx="32" cy="80" r="3" stroke="green" stroke-width="2" fill="none"></circle>
  <circle cx="54" cy="80" r="9" stroke="green" stroke-width="2" fill="none"></circle>
  <circle cx="54" cy="80" r="6" stroke="green" stroke-width="2" fill="none"></circle>
  <circle cx="54" cy="80" r="3" stroke="green" stroke-width="2" fill="none"></circle>
</svg>