<svg height="100" width="64" xmlns="http://www.w3.org/2000/svg" xmlns:xlink="http://www.w3.org/1999/xlink">
  <path stroke-width="0" fill="navy" d="m6.266747,31.04233c0,0 51.521158,-1.984127 51.465596,-2.050263c0.055562,0.066136 -2.457665,41.93121 -2.457665,41.93121c0,0 -46.759254,0.132275 -46.814815,0.066138c-1.640423,-29.621766 -2.202429,-39.624038 -2.192462,-39.942953c8.452037,6.91222 8.981384,7.360012 8.967494,7.343478c0.05556,0.066137 -0.767091,24.993656 -0.822652,24.927519c0.055561,0.066137 33.587303,-2.18254 33.531742,-2.248677c0.027781,0.033068 0.041671,-5.704365 0.041671,-11.458333c0,-5.753967 -0.01389,-11.524469 -0.041671,-11.557537c0.006945,0.008267 -0.181844,0.015034 -0.596817,0.022085c-0.207487,0.003525 -2.604853,0.020455 -5.062571,0.037678c-2.457719,0.017224 -4.975789,0.034741 -5.424685,0.039442c-0.448896,0.0047 0.198048,5.356584 2.290362,9.055875c1.046157,1.849645 1.693656,2.739474 2.906188,4.074517c1.212532,1.335043 2.510476,1.51147 2.50972,2.105796c-0.000378,0.297163 -0.652609,2.141589 -0.620688,2.583207c0.031921,0.441619 -0.766257,-0.074202 -4.354253,-1.617483c-3.587997,-1.543281 -11.529071,-8.825461 -11.252161,-16.377246l-3.143189,-0.296729l-1.144605,19.720475l-4.943249,-0.210387l-0.194443,-19.250828c-1.785704,0.143999 -3.69381,0.526957 -3.7077,0.510423c0.055561,0.066137 -8.939147,-7.407407 -8.939147,-7.407407z" />
</svg>