<svg height="100" width="64" xmlns="http://www.w3.org/2000/svg" xmlns:xlink="http://www.w3.org/1999/xlink">
  <circle stroke-width="3" fill="none" stroke="navy" r="5" cy="10.212766" cx="32.127659"/>
  <circle stroke-width="3" fill="none" stroke="navy" r="5" cy="25.212766" cx="32.127659"/>
  <circle stroke-width="3" fill="none" stroke="navy" r="5" cy="40.212766" cx="32.127659"/>
  <circle stroke-width="3" fill="none" stroke="green" r="5" cy="60.212766" cx="12.127659"/>
  <circle stroke-width="3" fill="none" stroke="green" r="5" cy="75.212766" cx="12.127659"/>
  <circle stroke-width="3" fill="none" stroke="green" r="5" cy="90.212766" cx="12.127659"/>
  <circle stroke-width="3" fill="none" stroke="green" r="5" cy="60.212766" cx="52.127659"/>
  <circle stroke-width="3" fill="none" stroke="green" r="5" cy="75.212766" cx="52.127659"/>
  <circle stroke-width="3" fill="none" stroke="green" r="5" cy="90.212766" cx="52.127659"/>
  <line stroke-width="3" stroke="navy" y2="22.212766" x2="28.127659" y1="13.212766" x1="28.127659"/>
  <line stroke-width="3" stroke="navy" y2="37.212766" x2="28.127659" y1="28.212766" x1="28.127659"/>
  <line stroke-width="3" stroke="navy" y2="22.212766" x2="36.127659" y1="13.212766" x1="36.127659"/>
  <line stroke-width="3" stroke="navy" y2="37.212766" x2="36.127659" y1="28.212766" x1="36.127659"/>
  <line stroke-width="3" stroke="green" y2="72.212766" x2="8.127659" y1="63.212766" x1="8.127659"/>
  <line stroke-width="3" stroke="green" y2="87.212766" x2="8.127659" y1="78.212766" x1="8.127659"/>
  <line stroke-width="3" stroke="green" y2="72.212766" x2="16.127659" y1="63.212766" x1="16.127659"/>
  <line stroke-width="3" stroke="green" y2="87.212766" x2="16.127659" y1="78.212766" x1="16.127659"/>
  <line stroke-width="3" stroke="green" y2="72.212766" x2="48.127659" y1="63.212766" x1="48.127659"/>
  <line stroke-width="3" stroke="green" y2="87.212766" x2="48.127659" y1="78.212766" x1="48.127659"/>
  <line stroke-width="3" stroke="green" y2="72.212766" x2="56.127659" y1="63.212766" x1="56.127659"/>
  <line stroke-width="3" stroke="green" y2="87.212766" x2="56.127659" y1="78.212766" x1="56.127659"/>
</svg>