<svg height="100" width="64" xmlns="http://www.w3.org/2000/svg" xmlns:xlink="http://www.w3.org/1999/xlink">
  <circle stroke-width="3" fill="none" stroke="navy" r="5" cy="10.623701" cx="12.328482"/>
  <circle stroke-width="3" fill="none" stroke="navy" r="5" cy="25.623701" cx="12.328482"/>
  <circle stroke-width="3" fill="none" stroke="navy" r="5" cy="40.623701" cx="12.328482"/>
  <circle stroke-width="3" fill="none" stroke="green" r="5" cy="10.623701" cx="52.328482"/>
  <circle stroke-width="3" fill="none" stroke="green" r="5" cy="25.623701" cx="52.328482"/>
  <circle stroke-width="3" fill="none" stroke="green" r="5" cy="40.623701" cx="52.328482"/>
  <circle stroke-width="3" fill="none" stroke="maroon" r="5" cy="35.623701" cx="32.328482"/>
  <circle stroke-width="3" fill="none" stroke="maroon" r="5" cy="50.623701" cx="32.328482"/>
  <circle stroke-width="3" fill="none" stroke="maroon" r="5" cy="65.623701" cx="32.328482"/>
  <circle stroke-width="3" fill="none" stroke="green" r="5" cy="60.623701" cx="12.328482"/>
  <circle stroke-width="3" fill="none" stroke="green" r="5" cy="75.623701" cx="12.328482"/>
  <circle stroke-width="3" fill="none" stroke="green" r="5" cy="90.623701" cx="12.328482"/>
  <circle stroke-width="3" fill="none" stroke="navy" r="5" cy="60.623701" cx="52.328482"/>
  <circle stroke-width="3" fill="none" stroke="navy" r="5" cy="75.623701" cx="52.328482"/>
  <circle stroke-width="3" fill="none" stroke="navy" r="5" cy="90.623701" cx="52.328482"/>
  <line stroke-width="3" stroke="navy" y2="22.623701" x2="8.328482" y1="13.623701" x1="8.328482"/>
  <line stroke-width="3" stroke="navy" y2="37.623701" x2="8.328482" y1="28.623701" x1="8.328482"/>
  <line stroke-width="3" stroke="navy" y2="22.623701" x2="16.328482" y1="13.623701" x1="16.328482"/>
  <line stroke-width="3" stroke="navy" y2="37.623701" x2="16.328482" y1="28.623701" x1="16.328482"/>
  <line stroke-width="3" stroke="green" y2="22.623701" x2="48.328482" y1="13.623701" x1="48.328482"/>
  <line stroke-width="3" stroke="green" y2="37.623701" x2="48.328482" y1="28.623701" x1="48.328482"/>
  <line stroke-width="3" stroke="green" y2="22.623701" x2="56.328482" y1="13.623701" x1="56.328482"/>
  <line stroke-width="3" stroke="green" y2="37.623701" x2="56.328482" y1="28.623701" x1="56.328482"/>
  <line stroke-width="3" stroke="maroon" y2="47.623701" x2="28.328482" y1="38.623701" x1="28.328482"/>
  <line stroke-width="3" stroke="maroon" y2="47.623701" x2="36.328482" y1="38.623701" x1="36.328482"/>
  <line stroke-width="3" stroke="maroon" y2="62.623701" x2="28.328482" y1="53.623701" x1="28.328482"/>
  <line stroke-width="3" stroke="maroon" y2="62.623701" x2="36.328482" y1="53.623701" x1="36.328482"/>
  <line stroke-width="3" stroke="green" y2="72.623701" x2="8.328482" y1="63.623701" x1="8.328482"/>
  <line stroke-width="3" stroke="green" y2="87.623701" x2="8.328482" y1="78.623701" x1="8.328482"/>
  <line stroke-width="3" stroke="green" y2="72.623701" x2="16.328482" y1="63.623701" x1="16.328482"/>
  <line stroke-width="3" stroke="green" y2="87.623701" x2="16.328482" y1="78.623701" x1="16.328482"/>
  <line stroke-width="3" stroke="navy" y2="72.623701" x2="48.328482" y1="63.623701" x1="48.328482"/>
  <line stroke-width="3" stroke="navy" y2="87.623701" x2="48.328482" y1="78.623701" x1="48.328482"/>
  <line stroke-width="3" stroke="navy" y2="72.623701" x2="56.328482" y1="63.623701" x1="56.328482"/>
  <line stroke-width="3" stroke="navy" y2="87.623701" x2="56.328482" y1="78.623701" x1="56.328482"/>
</svg>