<svg height="100" width="64" xmlns="http://www.w3.org/2000/svg" xmlns:xlink="http://www.w3.org/1999/xlink">
  <circle stroke-width="3" fill="none" stroke="green" r="5" cy="60.72463" cx="52.608877"/>
  <circle stroke-width="3" fill="none" stroke="green" r="5" cy="10.72463" cx="12.608877"/>
  <circle stroke-width="3" fill="none" stroke="green" r="5" cy="25.72463" cx="12.608877"/>
  <circle stroke-width="3" fill="none" stroke="green" r="5" cy="40.72463" cx="12.608877"/>
  <circle stroke-width="3" fill="none" stroke="green" r="5" cy="10.72463" cx="52.608877"/>
  <circle stroke-width="3" fill="none" stroke="green" r="5" cy="25.72463" cx="52.608877"/>
  <circle stroke-width="3" fill="none" stroke="green" r="5" cy="40.72463" cx="52.608877"/>
  <circle stroke-width="3" fill="none" stroke="green" r="5" cy="60.72463" cx="12.608877"/>
  <circle stroke-width="3" fill="none" stroke="green" r="5" cy="75.72463" cx="12.608877"/>
  <circle stroke-width="3" fill="none" stroke="green" r="5" cy="90.72463" cx="12.608877"/>
  <circle stroke-width="3" fill="none" stroke="green" r="5" cy="75.72463" cx="52.608877"/>
  <circle stroke-width="3" fill="none" stroke="green" r="5" cy="90.72463" cx="52.608877"/>
  <line stroke-width="3" stroke="green" y2="22.72463" x2="8.608877" y1="13.72463" x1="8.608877"/>
  <line stroke-width="3" stroke="green" y2="37.72463" x2="8.608877" y1="28.72463" x1="8.608877"/>
  <line stroke-width="3" stroke="green" y2="22.72463" x2="16.608877" y1="13.72463" x1="16.608877"/>
  <line stroke-width="3" stroke="green" y2="37.72463" x2="16.608877" y1="28.72463" x1="16.608877"/>
  <line stroke-width="3" stroke="green" y2="22.72463" x2="48.608877" y1="13.72463" x1="48.608877"/>
  <line stroke-width="3" stroke="green" y2="37.72463" x2="48.608877" y1="28.72463" x1="48.608877"/>
  <line stroke-width="3" stroke="green" y2="22.72463" x2="56.608877" y1="13.72463" x1="56.608877"/>
  <line stroke-width="3" stroke="green" y2="37.72463" x2="56.608877" y1="28.72463" x1="56.608877"/>
  <line stroke-width="3" stroke="green" y2="72.72463" x2="8.608877" y1="63.72463" x1="8.608877"/>
  <line stroke-width="3" stroke="green" y2="87.72463" x2="8.608877" y1="78.72463" x1="8.608877"/>
  <line stroke-width="3" stroke="green" y2="72.72463" x2="16.608877" y1="63.72463" x1="16.608877"/>
  <line stroke-width="3" stroke="green" y2="87.72463" x2="16.608877" y1="78.72463" x1="16.608877"/>
  <line stroke-width="3" stroke="green" y2="72.72463" x2="48.608877" y1="63.72463" x1="48.608877"/>
  <line stroke-width="3" stroke="green" y2="87.72463" x2="48.608877" y1="78.72463" x1="48.608877"/>
  <line stroke-width="3" stroke="green" y2="72.72463" x2="56.608877" y1="63.72463" x1="56.608877"/>
  <line stroke-width="3" stroke="green" y2="87.72463" x2="56.608877" y1="78.72463" x1="56.608877"/>
</svg>