<svg height="100" width="64" xmlns="http://www.w3.org/2000/svg" xmlns:xlink="http://www.w3.org/1999/xlink">
  <circle stroke-width="3" fill="none" stroke="green" r="5" cy="10.638298" cx="11.914894"/>
  <circle stroke-width="3" fill="none" stroke="green" r="5" cy="25.638298" cx="11.914894"/>
  <circle stroke-width="3" fill="none" stroke="green" r="5" cy="40.638298" cx="11.914894"/>
  <circle stroke-width="3" fill="none" stroke="green" r="5" cy="10.638298" cx="31.914894"/>
  <circle stroke-width="3" fill="none" stroke="green" r="5" cy="25.638298" cx="31.914894"/>
  <circle stroke-width="3" fill="none" stroke="green" r="5" cy="40.638298" cx="31.914894"/>
  <circle stroke-width="3" fill="none" stroke="green" r="5" cy="10.638298" cx="51.914894"/>
  <circle stroke-width="3" fill="none" stroke="green" r="5" cy="25.638298" cx="51.914894"/>
  <circle stroke-width="3" fill="none" stroke="green" r="5" cy="40.638298" cx="51.914894"/>
  <circle stroke-width="3" fill="none" stroke="green" r="5" cy="60.638298" cx="11.914894"/>
  <circle stroke-width="3" fill="none" stroke="green" r="5" cy="75.638298" cx="11.914894"/>
  <circle stroke-width="3" fill="none" stroke="green" r="5" cy="90.638298" cx="11.914894"/>
  <circle stroke-width="3" fill="none" stroke="green" r="5" cy="60.638298" cx="31.914894"/>
  <circle stroke-width="3" fill="none" stroke="green" r="5" cy="75.638298" cx="31.914894"/>
  <circle stroke-width="3" fill="none" stroke="green" r="5" cy="90.638298" cx="31.914894"/>
  <circle stroke-width="3" fill="none" stroke="green" r="5" cy="60.638298" cx="51.914894"/>
  <circle stroke-width="3" fill="none" stroke="green" r="5" cy="75.638298" cx="51.914894"/>
  <circle stroke-width="3" fill="none" stroke="green" r="5" cy="90.638298" cx="51.914894"/>
  <line stroke-width="2" stroke="green" y2="22.638298" x2="7.914894" y1="13.638298" x1="7.914894"/>
  <line stroke-width="2" stroke="green" y2="37.638298" x2="7.914894" y1="28.638298" x1="7.914894"/>
  <line stroke-width="2" stroke="green" y2="22.638298" x2="15.914894" y1="13.638298" x1="15.914894"/>
  <line stroke-width="2" stroke="green" y2="37.638298" x2="15.914894" y1="28.638298" x1="15.914894"/>
  <line stroke-width="2" stroke="green" y2="22.638298" x2="27.914894" y1="13.638298" x1="27.914894"/>
  <line stroke-width="2" stroke="green" y2="37.638298" x2="27.914894" y1="28.638298" x1="27.914894"/>
  <line stroke-width="2" stroke="green" y2="22.638298" x2="35.914894" y1="13.638298" x1="35.914894"/>
  <line stroke-width="2" stroke="green" y2="37.638298" x2="35.914894" y1="28.638298" x1="35.914894"/>
  <line stroke-width="2" stroke="green" y2="22.638298" x2="47.914894" y1="13.638298" x1="47.914894"/>
  <line stroke-width="2" stroke="green" y2="37.638298" x2="47.914894" y1="28.638298" x1="47.914894"/>
  <line stroke-width="2" stroke="green" y2="22.638298" x2="55.914894" y1="13.638298" x1="55.914894"/>
  <line stroke-width="2" stroke="green" y2="37.638298" x2="55.914894" y1="28.638298" x1="55.914894"/>
  <line stroke-width="2" stroke="green" y2="72.638298" x2="7.914894" y1="63.638298" x1="7.914894"/>
  <line stroke-width="2" stroke="green" y2="87.638298" x2="7.914894" y1="78.638298" x1="7.914894"/>
  <line stroke-width="2" stroke="green" y2="72.638298" x2="15.914894" y1="63.638298" x1="15.914894"/>
  <line stroke-width="2" stroke="green" y2="87.638298" x2="15.914894" y1="78.638298" x1="15.914894"/>
  <line stroke-width="2" stroke="green" y2="72.638298" x2="27.914894" y1="63.638298" x1="27.914894"/>
  <line stroke-width="2" stroke="green" y2="87.638298" x2="27.914894" y1="78.638298" x1="27.914894"/>
  <line stroke-width="2" stroke="green" y2="72.638298" x2="35.914894" y1="63.638298" x1="35.914894"/>
  <line stroke-width="2" stroke="green" y2="87.638298" x2="35.914894" y1="78.638298" x1="35.914894"/>
  <line stroke-width="2" stroke="green" y2="72.638298" x2="47.914894" y1="63.638298" x1="47.914894"/>
  <line stroke-width="2" stroke="green" y2="87.638298" x2="47.914894" y1="78.638298" x1="47.914894"/>
  <line stroke-width="2" stroke="green" y2="72.638298" x2="55.914894" y1="63.638298" x1="55.914894"/>
  <line stroke-width="2" stroke="green" y2="87.638298" x2="55.914894" y1="78.638298" x1="55.914894"/>
</svg>