<svg height="100" width="64" xmlns="http://www.w3.org/2000/svg" xmlns:xlink="http://www.w3.org/1999/xlink">
  <circle stroke-width="2" fill="none" stroke="maroon" r="4" cy="5" cx="31.799278"/>
  <circle stroke-width="2" fill="none" stroke="maroon" r="4" cy="16" cx="31.799278"/>
  <circle stroke-width="2" fill="none" stroke="maroon" r="4" cy="27" cx="31.799278"/>
  <circle stroke-width="2" fill="none" stroke="green" r="4" cy="39" cx="11.799278"/>
  <circle stroke-width="2" fill="none" stroke="green" r="4" cy="50" cx="11.799278"/>
  <circle stroke-width="2" fill="none" stroke="green" r="4" cy="61" cx="11.799278"/>
  <circle stroke-width="2" fill="none" stroke="navy" r="4" cy="39" cx="31.799278"/>
  <circle stroke-width="2" fill="none" stroke="navy" r="4" cy="50" cx="31.799278"/>
  <circle stroke-width="2" fill="none" stroke="navy" r="4" cy="61" cx="31.799278"/>
  <circle stroke-width="2" fill="none" stroke="green" r="4" cy="39" cx="51.799278"/>
  <circle stroke-width="2" fill="none" stroke="green" r="4" cy="50" cx="51.799278"/>
  <circle stroke-width="2" fill="none" stroke="green" r="4" cy="61" cx="51.799278"/>
  <circle stroke-width="2" fill="none" stroke="green" r="4" cy="73" cx="11.799278"/>
  <circle stroke-width="2" fill="none" stroke="green" r="4" cy="84" cx="11.799278"/>
  <circle stroke-width="2" fill="none" stroke="green" r="4" cy="95" cx="11.799278"/>
  <circle stroke-width="2" fill="none" stroke="navy" r="4" cy="73" cx="31.799278"/>
  <circle stroke-width="2" fill="none" stroke="navy" r="4" cy="84" cx="31.799278"/>
  <circle stroke-width="2" fill="none" stroke="navy" r="4" cy="95" cx="31.799278"/>
  <circle stroke-width="2" fill="none" stroke="green" r="4" cy="73" cx="51.799278"/>
  <circle stroke-width="2" fill="none" stroke="green" r="4" cy="84" cx="51.799278"/>
  <circle stroke-width="2" fill="none" stroke="green" r="4" cy="95" cx="51.799278"/>
  <line stroke-width="2" stroke="maroon" y2="13" x2="29.799278" y1="8" x1="29.799278"/>
  <line stroke-width="2" stroke="maroon" y2="24" x2="29.799278" y1="19" x1="29.799278"/>
  <line stroke-width="2" stroke="maroon" y2="13" x2="33.799278" y1="8" x1="33.799278"/>
  <line stroke-width="2" stroke="maroon" y2="24" x2="33.799278" y1="19" x1="33.799278"/>
  <line stroke-width="2" stroke="green" y2="47" x2="9.799278" y1="42" x1="9.799278"/>
  <line stroke-width="2" stroke="green" y2="58" x2="9.799278" y1="53" x1="9.799278"/>
  <line stroke-width="2" stroke="green" y2="47" x2="13.799278" y1="42" x1="13.799278"/>
  <line stroke-width="2" stroke="green" y2="58" x2="13.799278" y1="53" x1="13.799278"/>
  <line stroke-width="2" stroke="navy" y2="47" x2="29.799278" y1="42" x1="29.799278"/>
  <line stroke-width="2" stroke="navy" y2="58" x2="29.799278" y1="53" x1="29.799278"/>
  <line stroke-width="2" stroke="navy" y2="47" x2="33.799278" y1="42" x1="33.799278"/>
  <line stroke-width="2" stroke="navy" y2="58" x2="33.799278" y1="53" x1="33.799278"/>
  <line stroke-width="2" stroke="green" y2="47" x2="49.799278" y1="42" x1="49.799278"/>
  <line stroke-width="2" stroke="green" y2="58" x2="49.799278" y1="53" x1="49.799278"/>
  <line stroke-width="2" stroke="green" y2="47" x2="53.799278" y1="42" x1="53.799278"/>
  <line stroke-width="2" stroke="green" y2="58" x2="53.799278" y1="53" x1="53.799278"/>
  <line stroke-width="2" stroke="green" y2="81" x2="9.799278" y1="76" x1="9.799278"/>
  <line stroke-width="2" stroke="green" y2="92" x2="9.799278" y1="87" x1="9.799278"/>
  <line stroke-width="2" stroke="green" y2="81" x2="13.799278" y1="76" x1="13.799278"/>
  <line stroke-width="2" stroke="green" y2="92" x2="13.799278" y1="87" x1="13.799278"/>
  <line stroke-width="2" stroke="navy" y2="81" x2="29.799278" y1="76" x1="29.799278"/>
  <line stroke-width="2" stroke="navy" y2="92" x2="29.799278" y1="87" x1="29.799278"/>
  <line stroke-width="2" stroke="navy" y2="81" x2="33.799278" y1="76" x1="33.799278"/>
  <line stroke-width="2" stroke="navy" y2="92" x2="33.799278" y1="87" x1="33.799278"/>
  <line stroke-width="2" stroke="green" y2="81" x2="49.799278" y1="76" x1="49.799278"/>
  <line stroke-width="2" stroke="green" y2="92" x2="49.799278" y1="87" x1="49.799278"/>
  <line stroke-width="2" stroke="green" y2="81" x2="53.799278" y1="76" x1="53.799278"/>
  <line stroke-width="2" stroke="green" y2="92" x2="53.799278" y1="87" x1="53.799278"/>
</svg>