<svg height="100" width="64" xmlns="http://www.w3.org/2000/svg" xmlns:xlink="http://www.w3.org/1999/xlink">
  <circle cx="16" cy="14" r="9" stroke="navy" stroke-width="2" fill="none"></circle>
  <circle cx="16" cy="14" r="6" stroke="navy" stroke-width="2" fill="none"></circle>
  <circle cx="16" cy="14" r="3" stroke="navy" stroke-width="2" fill="none"></circle>
  <circle cx="48" cy="14" r="9" stroke="navy" stroke-width="2" fill="none"></circle>
  <circle cx="48" cy="14" r="6" stroke="navy" stroke-width="2" fill="none"></circle>
  <circle cx="48" cy="14" r="3" stroke="navy" stroke-width="2" fill="none"></circle>
  
  <circle cx="16" cy="38" r="9" stroke="navy" stroke-width="2" fill="none"></circle>
  <circle cx="16" cy="38" r="6" stroke="navy" stroke-width="2" fill="none"></circle>
  <circle cx="16" cy="38" r="3" stroke="navy" stroke-width="2" fill="none"></circle>
  <circle cx="48" cy="38" r="9" stroke="navy" stroke-width="2" fill="none"></circle>
  <circle cx="48" cy="38" r="6" stroke="navy" stroke-width="2" fill="none"></circle>
  <circle cx="48" cy="38" r="3" stroke="navy" stroke-width="2" fill="none"></circle>
  
  <circle cx="16" cy="62" r="9" stroke="navy" stroke-width="2" fill="none"></circle>
  <circle cx="16" cy="62" r="6" stroke="navy" stroke-width="2" fill="none"></circle>
  <circle cx="16" cy="62" r="3" stroke="navy" stroke-width="2" fill="none"></circle>
  <circle cx="48" cy="62" r="9" stroke="navy" stroke-width="2" fill="none"></circle>
  <circle cx="48" cy="62" r="6" stroke="navy" stroke-width="2" fill="none"></circle>
  <circle cx="48" cy="62" r="3" stroke="navy" stroke-width="2" fill="none"></circle>
  
  <circle cx="16" cy="86" r="9" stroke="navy" stroke-width="2" fill="none"></circle>
  <circle cx="16" cy="86" r="6" stroke="navy" stroke-width="2" fill="none"></circle>
  <circle cx="16" cy="86" r="3" stroke="navy" stroke-width="2" fill="none"></circle>
  <circle cx="48" cy="86" r="9" stroke="navy" stroke-width="2" fill="none"></circle>
  <circle cx="48" cy="86" r="6" stroke="navy" stroke-width="2" fill="none"></circle>
  <circle cx="48" cy="86" r="3" stroke="navy" stroke-width="2" fill="none"></circle>
</svg>