<svg width="64" height="100" xmlns="http://www.w3.org/2000/svg">
 <g>
  <path stroke-width="0" fill="green" d="M 37 19 C 37 20 36 22 35 24 L 33 29 L 32 30 C 31 31 31 31 31 31 C 31 31 29 30 28 28 L 25 25 L 24 25 C 23 25 20 25 19 26 C 18 26 18 26 18 27 C 18 27 18 28 19 28 C 20 28 21 29 21 29 C 22 29 22 29 22 30 C 22 30 19 35 18 37 L 17 38 L 17 38 C 16 37 15 37 14 36 L 12 35 L 12 35 C 11 35 11 36 11 36 C 11 36 12 37 13 38 C 14 39 15 40 15 40 C 16 40 15 40 15 42 C 13 43 9 47 7 49 C 6 50 5 51 4 52 L 2 53 L 2 53 L 2 54 L 3 54 C 8 52 14 49 19 45 C 23 42 28 37 30 33 C 31 33 31 32 31 32 C 31 32 34 35 34 35 C 34 35 34 36 30 38 C 28 39 26 40 26 40 C 26 40 26 41 27 41 L 27 41 L 27 41 C 28 41 29 40 31 40 C 33 39 35 38 36 38 L 37 37 L 38 39 C 39 40 42 42 44 44 C 46 47 49 49 50 50 C 51 51 51 52 51 52 C 52 52 54 51 57 50 C 61 48 62 48 62 48 C 62 47 62 45 62 45 C 62 45 62 45 61 45 C 57 44 52 41 45 37 C 44 36 43 35 43 35 C 43 35 43 35 45 34 C 48 33 49 33 51 33 C 52 33 52 33 52 33 C 53 32 53 32 52 31 C 51 29 46 25 39 21 C 38 20 37 19 37 19 C 37 19 37 19 37 19 M 39 29 L 38 32 L 39 32 C 39 32 39 32 39 32 C 39 32 40 32 41 31 C 41 31 42 30 43 30 C 43 30 44 29 44 29 C 44 29 41 27 41 27 C 41 27 40 28 39 29 M 28 42 C 28 42 26 43 24 44 C 23 45 21 46 20 47 L 20 47 L 20 48 L 20 48 L 21 48 C 22 48 22 48 22 48 C 22 48 22 49 22 50 L 21 52 L 20 52 C 20 52 19 52 17 52 C 16 52 15 52 15 52 C 14 52 16 53 16 54 C 17 55 18 55 19 55 C 19 55 20 55 20 55 C 20 56 18 60 17 61 C 17 61 16 62 16 62 C 16 62 17 62 17 62 L 17 63 L 18 62 C 19 61 21 58 23 55 L 23 54 L 24 54 C 25 54 25 54 25 54 C 25 53 25 53 25 53 C 25 53 25 53 25 53 C 24 53 24 53 24 53 C 24 53 25 52 25 51 C 26 49 29 42 29 42 C 29 42 28 42 28 42 M 31 45 C 31 48 30 52 29 55 C 28 56 28 56 29 56 C 30 56 31 55 32 54 C 32 53 33 52 34 50 L 34 49 L 36 49 C 36 49 37 49 37 49 C 37 49 37 49 37 50 C 36 52 36 55 36 55 C 37 55 37 55 39 55 C 41 55 44 55 45 55 L 45 55 L 45 54 L 45 54 L 44 54 C 43 53 41 53 41 53 C 41 52 40 52 40 52 C 40 51 41 48 42 46 C 43 45 43 45 43 45 C 43 45 40 45 38 44 C 35 44 32 44 32 44 L 31 44 L 31 45 M 21 66 C 20 67 19 68 19 68 C 18 68 19 68 16 65 C 15 64 14 63 14 63 C 14 63 13 63 13 63 C 13 63 19 78 19 78 C 19 78 19 78 20 78 L 20 78 L 20 77 C 20 75 21 74 23 72 C 25 70 25 69 26 68 C 27 65 27 62 26 57 L 26 57 L 26 58 M 36 57 C 32 58 28 58 28 58 C 28 58 30 60 32 62 C 34 64 35 66 35 67 C 35 67 35 67 34 68 C 31 70 29 72 27 74 L 25 74 L 26 75 C 27 76 30 75 34 72 C 35 72 36 71 36 70 C 37 69 37 69 37 70 C 38 70 38 71 39 72 C 41 75 43 77 43 79 L 43 79 L 45 78 L 47 77 L 47 76 C 47 74 45 72 42 68 C 41 67 41 66 41 66 C 41 66 42 65 43 64 C 46 61 47 59 48 58 L 49 57 L 46 57 C 45 57 40 57 36 57 M 39 61 C 37 61 36 61 36 61 C 36 61 38 64 39 64 C 39 64 41 61 41 61 C 41 61 41 61 41 61 C 41 61 40 61 39 61"/>
 </g>
</svg>