<svg height="100" width="64" xmlns="http://www.w3.org/2000/svg" xmlns:xlink="http://www.w3.org/1999/xlink">
  <circle stroke-width="3" fill="none" stroke="green" r="5" cy="10.537633" cx="11.720474"/>
  <circle stroke-width="3" fill="none" stroke="green" r="5" cy="25.537633" cx="11.720474"/>
  <circle stroke-width="3" fill="none" stroke="green" r="5" cy="40.537633" cx="11.720474"/>
  <circle stroke-width="3" fill="none" stroke="green" r="5" cy="30.537633" cx="31.720474"/>
  <circle stroke-width="3" fill="none" stroke="green" r="5" cy="10.537633" cx="51.720474"/>
  <circle stroke-width="3" fill="none" stroke="green" r="5" cy="25.537633" cx="51.720474"/>
  <circle stroke-width="3" fill="none" stroke="green" r="5" cy="40.537633" cx="51.720474"/>
  <circle stroke-width="3" fill="none" stroke="green" r="5" cy="60.537633" cx="11.720474"/>
  <circle stroke-width="3" fill="none" stroke="green" r="5" cy="75.537633" cx="11.720474"/>
  <circle stroke-width="3" fill="none" stroke="green" r="5" cy="90.537633" cx="11.720474"/>
  <circle stroke-width="3" fill="none" stroke="green" r="5" cy="70.537633" cx="31.720474"/>
  <circle stroke-width="3" fill="none" stroke="green" r="5" cy="60.537633" cx="51.720474"/>
  <circle stroke-width="3" fill="none" stroke="green" r="5" cy="75.537633" cx="51.720474"/>
  <circle stroke-width="3" fill="none" stroke="green" r="5" cy="90.537633" cx="51.720474"/>
  <line stroke-width="2" stroke="green" y2="22.537633" x2="7.720474" y1="13.537633" x1="7.720474"/>
  <line stroke-width="2" stroke="green" y2="37.537633" x2="7.720474" y1="28.537633" x1="7.720474"/>
  <line stroke-width="2" stroke="green" y2="22.537633" x2="15.720474" y1="13.537633" x1="15.720474"/>
  <line stroke-width="2" stroke="green" y2="37.537633" x2="15.720474" y1="28.537633" x1="15.720474"/>
  <line stroke-width="2" stroke="green" y2="27.537633" x2="27.720474" y1="36.537633" x1="15.720474"/>
  <line stroke-width="2" stroke="green" y2="34.537633" x2="27.720474" y1="43.537633" x1="15.720474"/>
  <line stroke-width="2" stroke="green" y2="36.537633" x2="47.720474" y1="27.537633" x1="35.720474"/>
  <line stroke-width="2" stroke="green" y2="43.537633" x2="47.720474" y1="34.537633" x1="35.720474"/>
  <line stroke-width="2" stroke="green" y2="22.537633" x2="47.720474" y1="13.537633" x1="47.720474"/>
  <line stroke-width="2" stroke="green" y2="37.537633" x2="47.720474" y1="28.537633" x1="47.720474"/>
  <line stroke-width="2" stroke="green" y2="22.537633" x2="55.720474" y1="13.537633" x1="55.720474"/>
  <line stroke-width="2" stroke="green" y2="37.537633" x2="55.720474" y1="28.537633" x1="55.720474"/>
  <line stroke-width="2" stroke="green" y2="72.537633" x2="7.720474" y1="63.537633" x1="7.720474"/>
  <line stroke-width="2" stroke="green" y2="87.537633" x2="7.720474" y1="78.537633" x1="7.720474"/>
  <line stroke-width="2" stroke="green" y2="72.537633" x2="15.720474" y1="63.537633" x1="15.720474"/>
  <line stroke-width="2" stroke="green" y2="87.537633" x2="15.720474" y1="78.537633" x1="15.720474"/>
  <line stroke-width="2" stroke="green" y2="66.537633" x2="27.720474" y1="57.537633" x1="15.720474"/>
  <line stroke-width="2" stroke="green" y2="73.537633" x2="27.720474" y1="64.537633" x1="15.720474"/>
  <line stroke-width="2" stroke="green" y2="57.537633" x2="47.720474" y1="66.537633" x1="35.720474"/>
  <line stroke-width="2" stroke="green" y2="64.537633" x2="47.720474" y1="73.537633" x1="35.720474"/>
  <line stroke-width="2" stroke="green" y2="72.537633" x2="47.720474" y1="63.537633" x1="47.720474"/>
  <line stroke-width="2" stroke="green" y2="87.537633" x2="47.720474" y1="78.537633" x1="47.720474"/>
  <line stroke-width="2" stroke="green" y2="72.537633" x2="55.720474" y1="63.537633" x1="55.720474"/>
  <line stroke-width="2" stroke="green" y2="87.537633" x2="55.720474" y1="78.537633" x1="55.720474"/>
</svg>