<svg height="100" width="64" xmlns="http://www.w3.org/2000/svg" xmlns:xlink="http://www.w3.org/1999/xlink">
  <circle id="svg_1" stroke-width="2" fill="none" stroke="navy" r="4" cy="5" cx="12.300885"/>
  <circle id="svg_2" stroke-width="2" fill="none" stroke="navy" r="4" cy="16" cx="12.300885"/>
  <circle id="svg_3" stroke-width="2" fill="none" stroke="navy" r="4" cy="27" cx="12.300885"/>
  <circle id="svg_4" stroke-width="2" fill="none" stroke="maroon" r="4" cy="5" cx="32.300885"/>
  <circle id="svg_5" stroke-width="2" fill="none" stroke="maroon" r="4" cy="16" cx="32.300885"/>
  <circle id="svg_6" stroke-width="2" fill="none" stroke="maroon" r="4" cy="27" cx="32.300885"/>
  <circle id="svg_7" stroke-width="2" fill="none" stroke="green" r="4" cy="5" cx="52.300885"/>
  <circle id="svg_8" stroke-width="2" fill="none" stroke="green" r="4" cy="16" cx="52.300885"/>
  <circle id="svg_9" stroke-width="2" fill="none" stroke="green" r="4" cy="27" cx="52.300885"/>
  <circle id="svg_10" stroke-width="2" fill="none" stroke="navy" r="4" cy="39" cx="12.300885"/>
  <circle id="svg_11" stroke-width="2" fill="none" stroke="navy" r="4" cy="50" cx="12.300885"/>
  <circle id="svg_12" stroke-width="2" fill="none" stroke="navy" r="4" cy="61" cx="12.300885"/>
  <circle id="svg_13" stroke-width="2" fill="none" stroke="maroon" r="4" cy="39" cx="32.300885"/>
  <circle id="svg_14" stroke-width="2" fill="none" stroke="maroon" r="4" cy="50" cx="32.300885"/>
  <circle id="svg_15" stroke-width="2" fill="none" stroke="maroon" r="4" cy="61" cx="32.300885"/>
  <circle id="svg_16" stroke-width="2" fill="none" stroke="green" r="4" cy="39" cx="52.300885"/>
  <circle id="svg_17" stroke-width="2" fill="none" stroke="green" r="4" cy="50" cx="52.300885"/>
  <circle id="svg_18" stroke-width="2" fill="none" stroke="green" r="4" cy="61" cx="52.300885"/>
  <circle id="svg_19" stroke-width="2" fill="none" stroke="navy" r="4" cy="73" cx="12.300885"/>
  <circle id="svg_20" stroke-width="2" fill="none" stroke="navy" r="4" cy="84" cx="12.300885"/>
  <circle id="svg_21" stroke-width="2" fill="none" stroke="navy" r="4" cy="95" cx="12.300885"/>
  <circle id="svg_22" stroke-width="2" fill="none" stroke="maroon" r="4" cy="73" cx="32.300885"/>
  <circle id="svg_23" stroke-width="2" fill="none" stroke="maroon" r="4" cy="84" cx="32.300885"/>
  <circle id="svg_24" stroke-width="2" fill="none" stroke="maroon" r="4" cy="95" cx="32.300885"/>
  <circle id="svg_25" stroke-width="2" fill="none" stroke="green" r="4" cy="73" cx="52.300885"/>
  <circle id="svg_26" stroke-width="2" fill="none" stroke="green" r="4" cy="84" cx="52.300885"/>
  <circle id="svg_27" stroke-width="2" fill="none" stroke="green" r="4" cy="95" cx="52.300885"/>
  <line id="svg_28" stroke-width="2" stroke="navy" y2="13" x2="10.300885" y1="8" x1="10.300885"/>
  <line id="svg_29" stroke-width="2" stroke="navy" y2="24" x2="10.300885" y1="19" x1="10.300885"/>
  <line id="svg_30" stroke-width="2" stroke="navy" y2="13" x2="14.300885" y1="8" x1="14.300885"/>
  <line id="svg_31" stroke-width="2" stroke="navy" y2="24" x2="14.300885" y1="19" x1="14.300885"/>
  <line id="svg_32" stroke-width="2" stroke="maroon" y2="13" x2="30.300885" y1="8" x1="30.300885"/>
  <line id="svg_33" stroke-width="2" stroke="maroon" y2="24" x2="30.300885" y1="19" x1="30.300885"/>
  <line id="svg_34" stroke-width="2" stroke="maroon" y2="13" x2="34.300885" y1="8" x1="34.300885"/>
  <line id="svg_35" stroke-width="2" stroke="maroon" y2="24" x2="34.300885" y1="19" x1="34.300885"/>
  <line id="svg_36" stroke-width="2" stroke="green" y2="13" x2="50.300885" y1="8" x1="50.300885"/>
  <line id="svg_37" stroke-width="2" stroke="green" y2="24" x2="50.300885" y1="19" x1="50.300885"/>
  <line id="svg_38" stroke-width="2" stroke="green" y2="13" x2="54.300885" y1="8" x1="54.300885"/>
  <line id="svg_39" stroke-width="2" stroke="green" y2="24" x2="54.300885" y1="19" x1="54.300885"/>
  <line id="svg_40" stroke-width="2" stroke="navy" y2="47" x2="10.300885" y1="42" x1="10.300885"/>
  <line id="svg_41" stroke-width="2" stroke="navy" y2="58" x2="10.300885" y1="53" x1="10.300885"/>
  <line id="svg_42" stroke-width="2" stroke="navy" y2="47" x2="14.300885" y1="42" x1="14.300885"/>
  <line id="svg_43" stroke-width="2" stroke="navy" y2="58" x2="14.300885" y1="53" x1="14.300885"/>
  <line id="svg_44" stroke-width="2" stroke="maroon" y2="47" x2="30.300885" y1="42" x1="30.300885"/>
  <line id="svg_45" stroke-width="2" stroke="maroon" y2="58" x2="30.300885" y1="53" x1="30.300885"/>
  <line id="svg_46" stroke-width="2" stroke="maroon" y2="47" x2="34.300885" y1="42" x1="34.300885"/>
  <line id="svg_47" stroke-width="2" stroke="maroon" y2="58" x2="34.300885" y1="53" x1="34.300885"/>
  <line id="svg_48" stroke-width="2" stroke="green" y2="47" x2="50.300885" y1="42" x1="50.300885"/>
  <line id="svg_49" stroke-width="2" stroke="green" y2="58" x2="50.300885" y1="53" x1="50.300885"/>
  <line id="svg_50" stroke-width="2" stroke="green" y2="47" x2="54.300885" y1="42" x1="54.300885"/>
  <line id="svg_51" stroke-width="2" stroke="green" y2="58" x2="54.300885" y1="53" x1="54.300885"/>
  <line id="svg_52" stroke-width="2" stroke="navy" y2="81" x2="10.300885" y1="76" x1="10.300885"/>
  <line id="svg_53" stroke-width="2" stroke="navy" y2="92" x2="10.300885" y1="87" x1="10.300885"/>
  <line id="svg_54" stroke-width="2" stroke="navy" y2="81" x2="14.300885" y1="76" x1="14.300885"/>
  <line id="svg_55" stroke-width="2" stroke="navy" y2="92" x2="14.300885" y1="87" x1="14.300885"/>
  <line id="svg_56" stroke-width="2" stroke="maroon" y2="81" x2="30.300885" y1="76" x1="30.300885"/>
  <line id="svg_57" stroke-width="2" stroke="maroon" y2="92" x2="30.300885" y1="87" x1="30.300885"/>
  <line id="svg_58" stroke-width="2" stroke="maroon" y2="81" x2="34.300885" y1="76" x1="34.300885"/>
  <line id="svg_59" stroke-width="2" stroke="maroon" y2="92" x2="34.300885" y1="87" x1="34.300885"/>
  <line id="svg_60" stroke-width="2" stroke="green" y2="81" x2="50.300885" y1="76" x1="50.300885"/>
  <line id="svg_61" stroke-width="2" stroke="green" y2="92" x2="50.300885" y1="87" x1="50.300885"/>
  <line id="svg_62" stroke-width="2" stroke="green" y2="81" x2="54.300885" y1="76" x1="54.300885"/>
  <line id="svg_63" stroke-width="2" stroke="green" y2="92" x2="54.300885" y1="87" x1="54.300885"/>
</svg>